<?xml version="1.0" encoding="utf-8"?>
<!-- Generator: Adobe Illustrator 24.3.0, SVG Export Plug-In . SVG Version: 6.00 Build 0)  -->
<svg version="1.1" id="Ebene_1" xmlns:svgjs="http://svgjs.com/svgjs"
	 xmlns="http://www.w3.org/2000/svg" xmlns:xlink="http://www.w3.org/1999/xlink" x="0px" y="0px" viewBox="0 0 512 512"
	 style="enable-background:new 0 0 512 512;" xml:space="preserve">
<style type="text/css">
	.st0{fill:#FFFFFF;}
</style>
<path class="st0" d="M428,207H213l0.1-0.2h-50.3v-46.7c0-51.4,41.8-94,93.1-94c14.1,0,27.5,3.2,39.6,9L331.7,19
	C310.5,7.3,286.4,0.5,260.7,0c-2.3,0-7,0-9.4,0c-85.7,1.5-154.2,73.7-154.2,160v46.7h-10c-15.4,0-27.9,15.9-27.9,35.5v234.2
	c0,19.6,12.5,35.6,27.9,35.6h337.7c15.4,0,27.9-16,27.9-35.6V242.2C452.8,224,441.9,209,428,207z M287.6,359.1v70.8
	c0,8.1-6.8,15-14.9,15h-33.5c-8.1,0-14.9-6.9-14.9-15v-70.8c-7.9-7.7-12.4-18.4-12.4-30.3c0-22.4,17.3-41.7,39.4-42.6
	c2.3-0.1,7-0.1,9.4,0c22.1,0.9,39.4,20.2,39.4,42.6C300.1,340.6,295.5,351.3,287.6,359.1z"/>
</svg>
