<svg xmlns="http://www.w3.org/2000/svg" viewBox="0 0 1282.81 940.39"><defs><style>.cls-1,.cls-2{fill:#fff;}.cls-2{opacity:0.1;}.cls-3{fill:#000001;opacity:0.25;}</style></defs><g id="Interieur"><path class="cls-1" d="M1274.08,940.39h-7v-2h7Zm-10,0h-7v-2h7Zm-10,0h-7v-2h7Zm-10,0h-7v-2h7Zm-10,0h-7v-2h7Zm-10,0h-7v-2h7Zm-10,0h-7v-2h7Zm-10,0h-7v-2h7Zm-10,0h-7v-2h7Zm-10,0h-7v-2h7Zm-10,0h-7v-2h7Zm-10,0h-7v-2h7Zm-10,0h-7v-2h7Zm-10,0h-7v-2h7Zm-10,0h-7v-2h7Zm-10,0h-7v-2h7Zm-10,0h-7v-2h7Zm-10,0h-7v-2h7Zm-10,0h-7v-2h7Zm-10,0h-7v-2h7Zm-10,0h-7v-2h7Zm-10,0h-7v-2h7Zm-10,0h-7v-2h7Zm-10,0h-7v-2h7Zm-10,0h-7v-2h7Zm-10,0h-7v-2h7Zm-10,0h-7v-2h7Zm-10,0h-7v-2h7Zm-10,0h-7v-2h7Zm-10,0h-7v-2h7Zm-10,0h-7v-2h7Zm-10,0h-7v-2h7Zm-10,0h-7v-2h7Zm-10,0h-7v-2h7Zm-10,0h-7v-2h7Zm-10,0h-7v-2h7Zm-10,0h-7v-2h7Zm-10,0h-7v-2h7Zm-10,0h-7v-2h7Zm-10,0h-7v-2h7Zm-10,0h-7v-2h7Zm-10,0h-7v-2h7Zm-10,0h-7v-2h7Zm-10,0h-7v-2h7Zm-10,0h-7v-2h7Zm-10,0h-7v-2h7Zm-10,0h-7v-2h7Zm-10,0h-7v-2h7Zm-10,0h-7v-2h7Zm-10,0h-7v-2h7Zm-10,0h-7v-2h7Zm-10,0h-7v-2h7Zm-10,0h-7v-2h7Zm-10,0h-7v-2h7Zm-10,0h-7v-2h7Zm-10,0h-7v-2h7Zm-10,0h-7v-2h7Zm-10,0h-7v-2h7Zm-10,0h-7v-2h7Zm-10,0h-7v-2h7Zm-10,0h-7v-2h7Zm-10,0h-7v-2h7Zm-10,0h-7v-2h7Zm-10,0h-7v-2h7Zm-10,0h-7v-2h7Zm-10,0h-7v-2h7Zm-10,0h-7v-2h7Zm-10,0h-7v-2h7Zm-10,0h-7v-2h7Zm-10,0h-7v-2h7Zm-10,0h-7v-2h7Zm-10,0h-7v-2h7Zm-10,0h-7v-2h7Zm-10,0h-7v-2h7Zm-10,0h-7v-2h7Zm-10,0h-7v-2h7Zm-10,0h-7v-2h7Zm-10,0h-7v-2h7Zm-10,0h-7v-2h7Zm-10,0h-7v-2h7Zm-10,0h-7v-2h7Zm-10,0h-7v-2h7Zm-10,0h-7v-2h7Zm-10,0h-7v-2h7Zm-10,0h-7v-2h7Zm-10,0h-7v-2h7Zm-10,0h-7v-2h7Zm-10,0h-7v-2h7Zm-10,0h-7v-2h7Zm-10,0h-7v-2h7Zm-10,0h-7v-2h7Zm-10,0h-7v-2h7Zm-10,0h-7v-2h7Zm-10,0h-7v-2h7Zm-10,0h-7v-2h7Zm-10,0h-7v-2h7Zm-10,0h-7v-2h7Zm-10,0h-7v-2h7Zm-10,0h-7v-2h7Zm-10,0h-7v-2h7Zm-10,0h-7v-2h7Zm-10,0h-7v-2h7Zm-10,0h-7v-2h7Zm-10,0h-7v-2h7Zm-10,0h-7v-2h7Zm-10,0h-7v-2h7Zm-10,0h-7v-2h7Zm-10,0h-7v-2h7Zm-10,0h-7v-2h7Zm-10,0h-7v-2h7Zm-10,0h-7v-2h7Zm-10,0h-7v-2h7Zm-10,0h-7v-2h7Zm-10,0h-7v-2h7Zm-10,0h-7v-2h7Zm-10,0h-7v-2h7Zm-10,0h-7v-2h7Zm-10,0h-7v-2h7Zm-10,0h-7v-2h7Zm-10,0h-7v-2h7Zm-10,0h-7v-2h7Zm-10,0h-7v-2h7Zm-10,0h-7v-2h7Zm-10,0h-7v-2h7Zm-10,0h-7v-2h7Zm-10,0h-7v-2h7Zm-10,0h-7v-2h7Zm1263.51-1.49h-2v-7h2ZM8.87,935.6h-2v-7h2Zm1268.72-6.7h-2v-7h2ZM8.87,925.6h-2v-7h2Zm1268.72-6.7h-2v-7h2ZM8.87,915.6h-2v-7h2Zm1268.72-6.7h-2v-7h2ZM8.87,905.6h-2v-7h2Zm1268.72-6.7h-2v-7h2ZM8.87,895.6h-2v-7h2Zm1268.72-6.7h-2v-7h2ZM8.87,885.6h-2v-7h2Zm1268.72-6.7h-2v-7h2ZM8.87,875.6h-2v-7h2Zm1268.72-6.7h-2v-7h2ZM8.87,865.6h-2v-7h2Zm1268.72-6.7h-2v-7h2ZM8.87,855.6h-2v-7h2Zm1268.72-6.7h-2v-7h2ZM8.87,845.6h-2v-7h2Zm1268.72-6.7h-2v-7h2ZM8.87,835.6h-2v-7h2Zm1268.72-6.7h-2v-7h2ZM8.87,825.6h-2v-7h2Zm1268.72-6.7h-2v-7h2ZM8.87,815.6h-2v-7h2Zm1268.72-6.7h-2v-7h2ZM8.87,805.6h-2v-7h2Zm1268.72-6.7h-2v-7h2ZM8.87,795.6h-2v-7h2Zm1268.72-6.7h-2v-7h2ZM8.87,785.6h-2v-7h2Zm1268.72-6.7h-2v-7h2ZM8.87,775.6h-2v-7h2Zm1268.72-6.7h-2v-7h2ZM8.87,765.6h-2v-7h2Zm1268.72-6.7h-2v-7h2ZM8.87,755.6h-2v-7h2Zm1268.72-6.7h-2v-7h2ZM8.87,745.6h-2v-7h2Zm1268.72-6.7h-2v-7h2ZM8.87,735.6h-2v-7h2Zm1268.72-6.7h-2v-7h2ZM8.87,725.6h-2v-7h2Zm1268.72-6.7h-2v-7h2ZM8.87,715.6h-2v-7h2Zm1268.72-6.7h-2v-7h2ZM8.87,705.6h-2v-7h2Zm1268.72-6.7h-2v-7h2ZM8.87,695.6h-2v-7h2Zm1268.72-6.7h-2v-7h2ZM8.87,685.6h-2v-7h2Zm1268.72-6.7h-2v-7h2ZM8.87,675.6h-2v-7h2Zm1268.72-6.7h-2v-7h2ZM8.87,665.6h-2v-7h2Zm1268.72-6.7h-2v-7h2ZM8.87,655.6h-2v-7h2Zm1268.72-6.7h-2v-7h2ZM8.87,645.6h-2v-7h2Zm1268.72-6.7h-2v-7h2ZM8.87,635.6h-2v-7h2Zm1268.72-6.7h-2v-7h2ZM8.87,625.6h-2v-7h2Zm1268.72-6.7h-2v-7h2ZM8.87,615.6h-2v-7h2Zm1268.72-6.7h-2v-7h2ZM8.87,605.6h-2v-7h2Zm1268.72-6.7h-2v-7h2ZM8.87,595.6h-2v-7h2Zm1268.72-6.7h-2v-7h2ZM8.87,585.6h-2v-7h2Zm1268.72-6.7h-2v-7h2ZM8.87,575.6h-2v-7h2Zm1268.72-6.7h-2v-7h2ZM8.87,565.6h-2v-7h2Zm1268.72-6.7h-2v-7h2ZM8.87,555.6h-2v-7h2Zm1268.72-6.7h-2v-7h2ZM8.87,545.6h-2v-7h2Zm1268.72-6.7h-2v-7h2ZM8.87,535.6h-2v-7h2Zm1268.72-6.7h-2v-7h2ZM8.87,525.6h-2v-7h2Zm1268.72-6.7h-2v-7h2ZM8.87,515.6h-2v-7h2Zm1268.72-6.7h-2v-7h2ZM8.87,505.6h-2v-7h2Zm1268.72-6.7h-2v-7h2ZM8.87,495.6h-2v-7h2Zm1268.72-6.7h-2v-7h2ZM8.87,485.6h-2v-7h2Zm1268.72-6.7h-2v-7h2ZM8.87,475.6h-2v-7h2Z"/><rect class="cls-2" x="986.01" y="359.93" width="273.12" height="104.51"/><rect class="cls-2" x="1096.9" y="5.53" width="162.23" height="43.73"/><polygon class="cls-2" points="736.9 319.75 736.9 5.81 1009.61 5.81 1009.61 93.24 825.72 93.24 825.72 319.75 736.9 319.75"/><path class="cls-2" d="M873.38,116.23h76.17a0,0,0,0,1,0,0v38.34a38.08,38.08,0,0,1-38.08,38.08h0a38.08,38.08,0,0,1-38.08-38.08V116.23a0,0,0,0,1,0,0Z"/></g><g id="Treppen"><polygon class="cls-3" points="380.32 309.68 546.15 309.68 546.15 126 570.25 126 570.25 309.68 732.58 309.68 732.58 9.1 380.45 9.1 380.32 309.68"/></g><g id="Ebene_6" data-name="Ebene 6"><path class="cls-1" d="M953,.58C574.3.58,2.43.5,2.43,0L1.87,469.6l1278.74.75V.56S1140.48.58,953,.58Zm316.57,460.77L736.14,461V9.1h-3V461L8.85,460.61,9.39,9.1c4.11,0,9.58.05,16.29.07,15.81.05,39.35.09,70,.13,55.29.08,135.36.14,238,.18,196.46.09,444.13.1,617.3.1,159.58,0,284.86,0,318.61,0Z"/><rect class="cls-1" x="377.04" y="9.1" width="3.28" height="309.23"/></g></svg>